<?xml version="1.0" encoding="UTF-8" standalone="no"?>
<!-- Created with Inkscape (http://www.inkscape.org/) -->

<svg
   xmlns:osb="http://www.openswatchbook.org/uri/2009/osb"
   xmlns:dc="http://purl.org/dc/elements/1.1/"
   xmlns:cc="http://creativecommons.org/ns#"
   xmlns:rdf="http://www.w3.org/1999/02/22-rdf-syntax-ns#"
   xmlns:svg="http://www.w3.org/2000/svg"
   xmlns="http://www.w3.org/2000/svg"
   xmlns:sodipodi="http://sodipodi.sourceforge.net/DTD/sodipodi-0.dtd"
   xmlns:inkscape="http://www.inkscape.org/namespaces/inkscape"
   width="471.45703"
   height="60.207031"
   id="svg3336"
   version="1.1"
   inkscape:version="0.91 r13725"
   preserveAspectRatio="xMinYMin meet"
   viewBox="0 0 471.45703 60.207031"
   sodipodi:docname="fragforce_basic_white_fill.svg">
  <defs
     id="defs3338">
    <linearGradient
       id="linearGradient5810"
       osb:paint="solid">
      <stop
         style="stop-color:#000000;stop-opacity:1;"
         offset="0"
         id="stop5812" />
    </linearGradient>
  </defs>
  <sodipodi:namedview
     id="base"
     pagecolor="#000000"
     bordercolor="#666666"
     borderopacity="1.0"
     inkscape:pageopacity="1"
     inkscape:pageshadow="2"
     inkscape:zoom="2.1213203"
     inkscape:cx="171.61466"
     inkscape:cy="-25.320822"
     inkscape:document-units="px"
     inkscape:current-layer="text3362"
     showgrid="false"
     inkscape:window-width="1920"
     inkscape:window-height="1018"
     inkscape:window-x="-8"
     inkscape:window-y="-8"
     inkscape:window-maximized="1"
     fit-margin-top="0"
     fit-margin-left="0"
     fit-margin-right="0"
     fit-margin-bottom="0" />
  <metadata
     id="metadata3341">
    <rdf:RDF>
      <cc:Work
         rdf:about="">
        <dc:format>image/svg+xml</dc:format>
        <dc:type
           rdf:resource="http://purl.org/dc/dcmitype/StillImage" />
        <dc:title></dc:title>
      </cc:Work>
    </rdf:RDF>
  </metadata>
  <g
     id="layer1"
     inkscape:label="Layer 1"
     inkscape:groupmode="layer"
     transform="translate(-128.33398,-13.458984)">
    <text
       xml:space="preserve"
       style="font-style:normal;font-variant:normal;font-weight:normal;font-stretch:normal;font-size:40px;line-height:125%;font-family:Blocked;-inkscape-font-specification:Blocked;letter-spacing:0px;word-spacing:0px;fill:#000000;fill-opacity:1;stroke:none;stroke-width:1px;stroke-linecap:butt;stroke-linejoin:miter;stroke-opacity:1"
       x="74.666664"
       y="44.666668"
       id="text3344"
       sodipodi:linespacing="125%"><tspan
         sodipodi:role="line"
         id="tspan3346"
         x="74.666664"
         y="44.666668" /></text>
    <g
       id="g4241">
      <g
         transform="translate(0,6)"
         id="g4210">
        <g
           style="font-style:normal;font-weight:normal;font-size:70px;line-height:125%;font-family:sans-serif;letter-spacing:0px;word-spacing:0px;fill:#000000;fill-opacity:1;stroke:none;stroke-width:1px;stroke-linecap:butt;stroke-linejoin:miter;stroke-opacity:1"
           id="text3348"
           transform="translate(0,8)">
          <path
             sodipodi:type="inkscape:offset"
             inkscape:radius="1.6666666"
             inkscape:original="M 130 1.125 L 130 58 L 156.25 58 L 156.25 40.5 L 178.125 40.5 L 178.125 1.125 L 130 1.125 z M 182.5 1.125 L 182.5 58 L 230.625 58 L 230.625 1.125 L 182.5 1.125 z M 235 1.125 L 235 58 L 283.125 58 L 283.125 1.125 L 235 1.125 z M 287.5 1.125 L 287.5 58 L 335.625 58 L 335.625 1.125 L 287.5 1.125 z M 340 1.125 L 340 58 L 366.25 58 L 366.25 40.5 L 388.125 40.5 L 388.125 1.125 L 340 1.125 z M 392.5 1.125 L 392.5 58 L 440.625 58 L 440.625 1.125 L 392.5 1.125 z M 445 1.125 L 445 58 L 493.125 58 L 493.125 1.125 L 445 1.125 z M 497.5 1.125 L 497.5 58 L 545.625 58 L 545.625 1.125 L 497.5 1.125 z M 550 1.125 L 550 58 L 598.125 58 L 598.125 1.125 L 550 1.125 z M 134.375 5.5 L 173.75 5.5 L 173.75 18.625 L 151.875 18.625 L 151.875 23 L 173.75 23 L 173.75 36.125 L 151.875 36.125 L 151.875 53.625 L 134.375 53.625 L 134.375 5.5 z M 186.875 5.5 L 226.25 5.5 L 226.25 31.75 L 217.5 31.75 L 217.5 36.125 L 226.25 36.125 L 226.25 53.625 L 208.75 53.625 L 208.75 40.5 L 204.375 40.5 L 204.375 53.625 L 186.875 53.625 L 186.875 5.5 z M 239.375 5.5 L 278.75 5.5 L 278.75 53.625 L 261.25 53.625 L 261.25 36.125 L 256.875 36.125 L 256.875 53.625 L 239.375 53.625 L 239.375 5.5 z M 291.875 5.5 L 331.25 5.5 L 331.25 27.375 L 313.75 27.375 L 313.75 18.625 L 309.375 18.625 L 309.375 44.875 L 318.125 44.875 L 318.125 40.5 L 313.75 40.5 L 313.75 31.75 L 331.25 31.75 L 331.25 53.625 L 291.875 53.625 L 291.875 5.5 z M 344.375 5.5 L 383.75 5.5 L 383.75 18.625 L 361.875 18.625 L 361.875 23 L 383.75 23 L 383.75 36.125 L 361.875 36.125 L 361.875 53.625 L 344.375 53.625 L 344.375 5.5 z M 396.875 5.5 L 436.25 5.5 L 436.25 53.625 L 396.875 53.625 L 396.875 5.5 z M 449.375 5.5 L 488.75 5.5 L 488.75 31.75 L 480 31.75 L 480 36.125 L 488.75 36.125 L 488.75 53.625 L 471.25 53.625 L 471.25 40.5 L 466.875 40.5 L 466.875 53.625 L 449.375 53.625 L 449.375 5.5 z M 501.875 5.5 L 541.25 5.5 L 541.25 27.375 L 523.75 27.375 L 523.75 18.625 L 519.375 18.625 L 519.375 40.5 L 523.75 40.5 L 523.75 31.75 L 541.25 31.75 L 541.25 53.625 L 501.875 53.625 L 501.875 5.5 z M 554.375 5.5 L 593.75 5.5 L 593.75 18.625 L 576.25 18.625 L 576.25 23 L 593.75 23 L 593.75 36.125 L 576.25 36.125 L 576.25 40.5 L 593.75 40.5 L 593.75 53.625 L 554.375 53.625 L 554.375 5.5 z M 204.375 14.25 L 204.375 27.375 L 208.75 27.375 L 208.75 14.25 L 204.375 14.25 z M 256.875 14.25 L 256.875 27.375 L 261.25 27.375 L 261.25 14.25 L 256.875 14.25 z M 466.875 14.25 L 466.875 27.375 L 471.25 27.375 L 471.25 14.25 L 466.875 14.25 z M 414.375 18.625 L 414.375 40.5 L 418.75 40.5 L 418.75 18.625 L 414.375 18.625 z "
             style="font-style:normal;font-variant:normal;font-weight:normal;font-stretch:normal;font-size:70px;line-height:125%;font-family:Blocked;-inkscape-font-specification:Blocked"
             id="path4281"
             d="M 130,-0.54101562 A 1.6668333,1.6668333 0 0 0 128.33398,1.125 l 0,56.875 A 1.6668333,1.6668333 0 0 0 130,59.666016 l 26.25,0 A 1.6668333,1.6668333 0 0 0 157.91602,58 l 0,-15.833984 20.20898,0 A 1.6668333,1.6668333 0 0 0 179.79102,40.5 l 0,-39.375 A 1.6668333,1.6668333 0 0 0 178.125,-0.54101562 l -48.125,0 z m 52.5,0 A 1.6668333,1.6668333 0 0 0 180.83398,1.125 l 0,56.875 A 1.6668333,1.6668333 0 0 0 182.5,59.666016 l 48.125,0 A 1.6668333,1.6668333 0 0 0 232.29102,58 l 0,-56.875 A 1.6668333,1.6668333 0 0 0 230.625,-0.54101562 l -48.125,0 z m 52.5,0 A 1.6668333,1.6668333 0 0 0 233.33398,1.125 l 0,56.875 A 1.6668333,1.6668333 0 0 0 235,59.666016 l 48.125,0 A 1.6668333,1.6668333 0 0 0 284.79102,58 l 0,-56.875 A 1.6668333,1.6668333 0 0 0 283.125,-0.54101562 l -48.125,0 z m 52.5,0 A 1.6668333,1.6668333 0 0 0 285.83398,1.125 l 0,56.875 A 1.6668333,1.6668333 0 0 0 287.5,59.666016 l 48.125,0 A 1.6668333,1.6668333 0 0 0 337.29102,58 l 0,-56.875 A 1.6668333,1.6668333 0 0 0 335.625,-0.54101562 l -48.125,0 z m 52.5,0 A 1.6668333,1.6668333 0 0 0 338.33398,1.125 l 0,56.875 A 1.6668333,1.6668333 0 0 0 340,59.666016 l 26.25,0 A 1.6668333,1.6668333 0 0 0 367.91602,58 l 0,-15.833984 20.20898,0 A 1.6668333,1.6668333 0 0 0 389.79102,40.5 l 0,-39.375 A 1.6668333,1.6668333 0 0 0 388.125,-0.54101562 l -48.125,0 z m 52.5,0 A 1.6668333,1.6668333 0 0 0 390.83398,1.125 l 0,56.875 A 1.6668333,1.6668333 0 0 0 392.5,59.666016 l 48.125,0 A 1.6668333,1.6668333 0 0 0 442.29102,58 l 0,-56.875 A 1.6668333,1.6668333 0 0 0 440.625,-0.54101562 l -48.125,0 z m 52.5,0 A 1.6668333,1.6668333 0 0 0 443.33398,1.125 l 0,56.875 A 1.6668333,1.6668333 0 0 0 445,59.666016 l 48.125,0 A 1.6668333,1.6668333 0 0 0 494.79102,58 l 0,-56.875 A 1.6668333,1.6668333 0 0 0 493.125,-0.54101562 l -48.125,0 z m 52.5,0 A 1.6668333,1.6668333 0 0 0 495.83398,1.125 l 0,56.875 A 1.6668333,1.6668333 0 0 0 497.5,59.666016 l 48.125,0 A 1.6668333,1.6668333 0 0 0 547.29102,58 l 0,-56.875 A 1.6668333,1.6668333 0 0 0 545.625,-0.54101562 l -48.125,0 z m 52.5,0 A 1.6668333,1.6668333 0 0 0 548.33398,1.125 l 0,56.875 A 1.6668333,1.6668333 0 0 0 550,59.666016 l 48.125,0 A 1.6668333,1.6668333 0 0 0 599.79102,58 l 0,-56.875 A 1.6668333,1.6668333 0 0 0 598.125,-0.54101562 l -48.125,0 z m -413.95898,7.70703122 36.04296,0 0,9.7929684 -20.20898,0 A 1.6668333,1.6668333 0 0 0 150.20898,18.625 l 0,4.375 a 1.6668333,1.6668333 0 0 0 1.66602,1.666016 l 20.20898,0 0,9.792968 -20.20898,0 A 1.6668333,1.6668333 0 0 0 150.20898,36.125 l 0,15.833984 -14.16796,0 0,-44.7929684 z m 52.5,0 36.04296,0 0,22.9179684 -7.08398,0 A 1.6668333,1.6668333 0 0 0 215.83398,31.75 l 0,4.375 A 1.6668333,1.6668333 0 0 0 217.5,37.791016 l 7.08398,0 0,14.167968 -14.16796,0 0,-11.458984 A 1.6668333,1.6668333 0 0 0 208.75,38.833984 l -4.375,0 A 1.6668333,1.6668333 0 0 0 202.70898,40.5 l 0,11.458984 -14.16796,0 0,-44.7929684 z m 52.5,0 36.04296,0 0,44.7929684 -14.16796,0 0,-15.833984 A 1.6668333,1.6668333 0 0 0 261.25,34.458984 l -4.375,0 A 1.6668333,1.6668333 0 0 0 255.20898,36.125 l 0,15.833984 -14.16796,0 0,-44.7929684 z m 52.5,0 36.04296,0 0,18.5429684 -14.16796,0 0,-7.083984 A 1.6668333,1.6668333 0 0 0 313.75,16.958984 l -4.375,0 A 1.6668333,1.6668333 0 0 0 307.70898,18.625 l 0,26.25 a 1.6668333,1.6668333 0 0 0 1.66602,1.666016 l 8.75,0 A 1.6668333,1.6668333 0 0 0 319.79102,44.875 l 0,-4.375 A 1.6668333,1.6668333 0 0 0 318.125,38.833984 l -2.70898,0 0,-5.417968 14.16796,0 0,18.542968 -36.04296,0 0,-44.7929684 z m 52.5,0 36.04296,0 0,9.7929684 -20.20898,0 A 1.6668333,1.6668333 0 0 0 360.20898,18.625 l 0,4.375 a 1.6668333,1.6668333 0 0 0 1.66602,1.666016 l 20.20898,0 0,9.792968 -20.20898,0 A 1.6668333,1.6668333 0 0 0 360.20898,36.125 l 0,15.833984 -14.16796,0 0,-44.7929684 z m 52.5,0 36.04296,0 0,44.7929684 -36.04296,0 0,-44.7929684 z m 52.5,0 36.04296,0 0,22.9179684 -7.08398,0 A 1.6668333,1.6668333 0 0 0 478.33398,31.75 l 0,4.375 A 1.6668333,1.6668333 0 0 0 480,37.791016 l 7.08398,0 0,14.167968 -14.16796,0 0,-11.458984 A 1.6668333,1.6668333 0 0 0 471.25,38.833984 l -4.375,0 A 1.6668333,1.6668333 0 0 0 465.20898,40.5 l 0,11.458984 -14.16796,0 0,-44.7929684 z m 52.5,0 36.04296,0 0,18.5429684 -14.16796,0 0,-7.083984 A 1.6668333,1.6668333 0 0 0 523.75,16.958984 l -4.375,0 A 1.6668333,1.6668333 0 0 0 517.70898,18.625 l 0,21.875 a 1.6668333,1.6668333 0 0 0 1.66602,1.666016 l 4.375,0 A 1.6668333,1.6668333 0 0 0 525.41602,40.5 l 0,-7.083984 14.16796,0 0,18.542968 -36.04296,0 0,-44.7929684 z m 52.5,0 36.04296,0 0,9.7929684 -15.83398,0 A 1.6668333,1.6668333 0 0 0 574.58398,18.625 l 0,4.375 a 1.6668333,1.6668333 0 0 0 1.66602,1.666016 l 15.83398,0 0,9.792968 -15.83398,0 A 1.6668333,1.6668333 0 0 0 574.58398,36.125 l 0,4.375 a 1.6668333,1.6668333 0 0 0 1.66602,1.666016 l 15.83398,0 0,9.792968 -36.04296,0 0,-44.7929684 z M 204.375,12.583984 A 1.6668333,1.6668333 0 0 0 202.70898,14.25 l 0,13.125 a 1.6668333,1.6668333 0 0 0 1.66602,1.666016 l 4.375,0 A 1.6668333,1.6668333 0 0 0 210.41602,27.375 l 0,-13.125 A 1.6668333,1.6668333 0 0 0 208.75,12.583984 l -4.375,0 z m 52.5,0 A 1.6668333,1.6668333 0 0 0 255.20898,14.25 l 0,13.125 a 1.6668333,1.6668333 0 0 0 1.66602,1.666016 l 4.375,0 A 1.6668333,1.6668333 0 0 0 262.91602,27.375 l 0,-13.125 A 1.6668333,1.6668333 0 0 0 261.25,12.583984 l -4.375,0 z m 210,0 A 1.6668333,1.6668333 0 0 0 465.20898,14.25 l 0,13.125 a 1.6668333,1.6668333 0 0 0 1.66602,1.666016 l 4.375,0 A 1.6668333,1.6668333 0 0 0 472.91602,27.375 l 0,-13.125 A 1.6668333,1.6668333 0 0 0 471.25,12.583984 l -4.375,0 z m -52.5,4.375 A 1.6668333,1.6668333 0 0 0 412.70898,18.625 l 0,21.875 a 1.6668333,1.6668333 0 0 0 1.66602,1.666016 l 4.375,0 A 1.6668333,1.6668333 0 0 0 420.41602,40.5 l 0,-21.875 A 1.6668333,1.6668333 0 0 0 418.75,16.958984 l -4.375,0 z" />
        </g>
      </g>
    </g>
    <g
       id="text3362"
       style="font-style:normal;font-weight:normal;font-size:70px;line-height:125%;font-family:sans-serif;letter-spacing:0px;word-spacing:0px;opacity:1;fill:#28b7e5;fill-opacity:1;stroke:#000000;stroke-width:1px;stroke-linecap:butt;stroke-linejoin:miter;stroke-opacity:1"
       transform="translate(0,2)">
      <path
         id="path4239"
         style="font-style:normal;font-variant:normal;font-weight:normal;font-stretch:normal;font-size:70px;line-height:125%;font-family:Blocked;-inkscape-font-specification:Blocked;fill:#28b7e5;fill-opacity:1;stroke:#000000;stroke-opacity:1"
         d="m 593.75,65.625 0,-13.125 -17.5,0 0,-4.375 17.5,0 0,-13.125 -17.5,0 0,-4.375 17.5,0 0,-13.125 -39.375,0 0,48.125 39.375,0 z M 550,70 l 0,-56.875 48.125,0 0,56.875 L 550,70 Z m -8.75,-4.375 0,-21.875 -17.5,0 0,8.75 -4.375,0 0,-21.875 4.375,0 0,8.75 17.5,0 0,-21.875 -39.375,0 0,48.125 39.375,0 z M 497.5,70 l 0,-56.875 48.125,0 0,56.875 -48.125,0 z m -30.625,-30.625 0,-13.125 4.375,0 0,13.125 -4.375,0 z m 21.875,26.25 0,-17.5 -8.75,0 0,-4.375 8.75,0 0,-26.25 -39.375,0 0,48.125 17.5,0 0,-13.125 4.375,0 0,13.125 17.5,0 z M 445,70 l 0,-56.875 48.125,0 0,56.875 L 445,70 Z m -30.625,-17.5 0,-21.875 4.375,0 0,21.875 -4.375,0 z m 21.875,13.125 0,-48.125 -39.375,0 0,48.125 39.375,0 z M 392.5,70 l 0,-56.875 48.125,0 0,56.875 -48.125,0 z m -30.625,-4.375 0,-17.5 21.875,0 0,-13.125 -21.875,0 0,-4.375 21.875,0 0,-13.125 -39.375,0 0,48.125 17.5,0 z M 340,70 l 0,-56.875 48.125,0 0,39.375 -21.875,0 0,17.5 -26.25,0 z m -8.75,-4.375 0,-21.875 -17.5,0 0,8.75 4.375,0 0,4.375 -8.75,0 0,-26.25 4.375,0 0,8.75 17.5,0 0,-21.875 -39.375,0 0,48.125 39.375,0 z M 287.5,70 l 0,-56.875 48.125,0 0,56.875 -48.125,0 z m -30.625,-30.625 0,-13.125 4.375,0 0,13.125 -4.375,0 z m 21.875,26.25 0,-48.125 -39.375,0 0,48.125 17.5,0 0,-17.5 4.375,0 0,17.5 17.5,0 z M 235,70 l 0,-56.875 48.125,0 0,56.875 L 235,70 Z m -30.625,-30.625 0,-13.125 4.375,0 0,13.125 -4.375,0 z m 21.875,26.25 0,-17.5 -8.75,0 0,-4.375 8.75,0 0,-26.25 -39.375,0 0,48.125 17.5,0 0,-13.125 4.375,0 0,13.125 17.5,0 z M 182.5,70 l 0,-56.875 48.125,0 0,56.875 -48.125,0 z m -30.625,-4.375 0,-17.5 21.875,0 0,-13.125 -21.875,0 0,-4.375 21.875,0 0,-13.125 -39.375,0 0,48.125 17.5,0 z M 130,70 l 0,-56.875 48.125,0 0,39.375 -21.875,0 0,17.5 -26.25,0 z"
         inkscape:connector-curvature="0" />
      <path
         style="opacity:1;fill:#ffffff;fill-opacity:1;stroke:#00a1e0;stroke-width:0.47140452px;stroke-linejoin:round;stroke-opacity:1"
         d="m 5.8688237,30.184962 0,-24.5130358 20.0346923,0 20.034693,0 0,6.8353658 0,6.835366 -11.078007,0 -11.078006,0 0,1.885618 0,1.885618 11.078006,0 11.078007,0 0,6.835366 0,6.835365 -11.078007,0 -11.078006,0 0,8.956686 0,8.956686 -8.956686,0 -8.9566863,0 0,-24.513035 z"
         id="path4733"
         inkscape:connector-curvature="0"
         transform="translate(128.33398,11.458984)" />
      <path
         style="opacity:1;fill:#ffffff;fill-opacity:1;stroke:#00a1e0;stroke-width:0.47140452px;stroke-linejoin:round;stroke-opacity:1"
         d="m 58.194727,30.184962 0,-24.5130358 20.034692,0 20.034693,0 0,13.4350288 0,13.435029 -4.478343,0 -4.478343,0 0,1.885619 0,1.885618 4.478343,0 4.478343,0 0,9.192388 0,9.192388 -8.956686,0 -8.956686,0 0,-6.599663 0,-6.599663 -2.121321,0 -2.12132,0 0,6.599663 0,6.599663 -8.956686,0 -8.956686,0 0,-24.513035 z m 21.92031,-8.720984 0,-6.128259 -1.885618,0 -1.885618,0 -0.133594,5.629411 c -0.07348,3.096176 -0.02215,5.919833 0.114063,6.274792 0.164068,0.427553 0.84559,0.595924 2.019212,0.498848 l 1.771555,-0.146533 0,-6.128259 z"
         id="path4735"
         inkscape:connector-curvature="0"
         transform="translate(128.33398,11.458984)" />
      <path
         style="opacity:1;fill:#ffffff;fill-opacity:1;stroke:#00a1e0;stroke-width:0.47140452px;stroke-linejoin:round;stroke-opacity:1"
         d="m 110.8349,54.383726 c -0.17285,-0.172845 -0.31427,-11.203712 -0.31427,-24.513034 l 0,-24.1987658 20.03469,0 20.03469,0 0,24.5130358 0,24.513035 -8.95668,0 -8.95669,0 0,-8.956686 0,-8.956686 -1.88562,0 -1.88561,0 0,8.956686 0,8.956686 -8.87812,0 c -4.88297,0 -9.01954,-0.141421 -9.19239,-0.314271 z m 21.73757,-33.037599 0.13154,-6.24611 -1.8993,0 -1.8993,0 0,6.392417 0,6.392418 1.76776,-0.146308 1.76777,-0.146307 0.13153,-6.24611 z"
         id="path4737"
         inkscape:connector-curvature="0"
         transform="translate(128.33398,11.458984)" />
      <path
         style="opacity:1;fill:#ffffff;fill-opacity:1;stroke:#00a1e0;stroke-width:0.47140452px;stroke-linejoin:round;stroke-opacity:1"
         d="m 163.31794,30.184962 0,-24.5130358 20.03469,0 20.03469,0 0,11.3137088 0,11.313709 -9.19239,0 -9.19238,0 0,-4.478343 0,-4.478343 -1.88562,0 -1.88562,0 0,12.981977 0,12.981978 4.12479,-0.136204 4.12479,-0.136205 0.14631,-1.767766 0.1463,-1.767767 -2.38548,0 -2.38547,0 0,-4.714046 0,-4.714045 9.19238,0 9.19239,0 0,11.313709 0,11.313708 -20.03469,0 -20.03469,0 0,-24.513035 z"
         id="path4739"
         inkscape:connector-curvature="0"
         transform="translate(128.33398,11.458984)" />
      <path
         style="opacity:1;fill:#ffffff;fill-opacity:1;stroke:#00a1e0;stroke-width:0.47140452px;stroke-linejoin:round;stroke-opacity:1"
         d="m 215.64384,30.184962 0,-24.5130358 20.03469,0 20.03469,0 0,6.8353658 0,6.835366 -10.8423,0 -10.8423,0 0,1.885618 0,1.885618 10.8423,0 10.8423,0 0,6.835366 0,6.835365 -10.8423,0 -10.8423,0 0,8.956686 0,8.956686 -9.19239,0 -9.19239,0 0,-24.513035 z"
         id="path4741"
         inkscape:connector-curvature="0"
         transform="translate(128.33398,11.458984)" />
      <path
         style="opacity:1;fill:#ffffff;fill-opacity:1;stroke:#00a1e0;stroke-width:0.47140452px;stroke-linejoin:round;stroke-opacity:1"
         d="m 268.44115,30.184962 0,-24.5130358 19.79899,0 19.79899,0 0,24.5130358 0,24.513035 -19.79899,0 -19.79899,0 0,-24.513035 z m 21.68461,-0.235702 0,-10.606602 -1.88562,0 -1.88562,0 0,10.606602 0,10.606601 1.88562,0 1.88562,0 0,-10.606601 z"
         id="path4743"
         inkscape:connector-curvature="0"
         transform="translate(128.33398,11.458984)" />
      <path
         style="opacity:1;fill:#ffffff;fill-opacity:1;stroke:#00a1e0;stroke-width:0.47140452px;stroke-linejoin:round;stroke-opacity:1"
         d="m 320.76705,30.184962 0,-24.5130358 20.03469,0 20.0347,0 0,13.4350288 0,13.435029 -4.47835,0 -4.47834,0 0,1.885619 0,1.885618 4.47834,0 4.47835,0 0,9.192388 0,9.192388 -9.19239,0 -9.19239,0 0,-6.599663 0,-6.599663 -1.88562,0 -1.88562,0 0,6.599663 0,6.599663 -8.95668,0 -8.95669,0 0,-24.513035 z m 21.68461,-8.720984 0,-6.363961 -1.88562,0 -1.88562,0 0,6.049691 c 0,3.327331 0.14142,6.191113 0.31427,6.363961 0.17285,0.172849 1.02138,0.31427 1.88562,0.31427 l 1.57135,0 0,-6.363961 z"
         id="path4745"
         inkscape:connector-curvature="0"
         transform="translate(128.33398,11.458984)" />
      <path
         style="opacity:1;fill:#ffffff;fill-opacity:1;stroke:#00a1e0;stroke-width:0.47140452px;stroke-linejoin:round;stroke-opacity:1"
         d="m 373.09295,30.184962 0,-24.5130358 20.0347,0 20.03469,0 0,11.3137088 0,11.313709 -8.95669,0 -8.95668,0 0,-4.478343 0,-4.478343 -1.88562,0 -1.88562,0 0,10.606602 0,10.606601 1.88562,0 1.88562,0 0,-4.24264 0,-4.242641 8.95668,0 8.95669,0 0,11.313709 0,11.313708 -20.03469,0 -20.0347,0 0,-24.513035 z"
         id="path4747"
         inkscape:connector-curvature="0"
         transform="translate(128.33398,11.458984)" />
      <path
         style="opacity:1;fill:#ffffff;fill-opacity:1;stroke:#00a1e0;stroke-width:0.47140452px;stroke-linejoin:round;stroke-opacity:1"
         d="m 425.89026,30.184962 0,-24.5130358 19.79899,0 19.79899,0 0,6.8353658 0,6.835366 -8.72098,0 -8.72099,0 0,1.885618 0,1.885618 8.72099,0 8.72098,0 0,6.824731 0,6.824732 -8.60313,0.128485 -8.60313,0.128485 -0.14631,1.767767 -0.14631,1.767767 8.74944,0 8.74944,0 0,7.071068 0,7.071068 -19.79899,0 -19.79899,0 0,-24.513035 z"
         id="path4749"
         inkscape:connector-curvature="0"
         transform="translate(128.33398,11.458984)" />
    </g>
  </g>
</svg>
