<?xml version="1.0" encoding="UTF-8" standalone="no"?>
<!-- Created with Inkscape (http://www.inkscape.org/) -->

<svg
        xmlns:dc="http://purl.org/dc/elements/1.1/"
        xmlns:cc="http://creativecommons.org/ns#"
        xmlns:rdf="http://www.w3.org/1999/02/22-rdf-syntax-ns#"
        xmlns:svg="http://www.w3.org/2000/svg"
        xmlns="http://www.w3.org/2000/svg"
        xmlns:sodipodi="http://sodipodi.sourceforge.net/DTD/sodipodi-0.dtd"
        xmlns:inkscape="http://www.inkscape.org/namespaces/inkscape"
        width="744.09448819"
        height="1052.3622047"
        id="svg3234"
        version="1.1"
        inkscape:version="0.48.4 r9939"
        sodipodi:docname="fav-base.svg"
        inkscape:export-filename="/home/pmcintyr/Downloads/dice_icon_final.png"
        inkscape:export-xdpi="4.4499998"
        inkscape:export-ydpi="4.4499998">
    <defs
            id="defs3236"/>
    <sodipodi:namedview
            id="base"
            pagecolor="#ffffff"
            bordercolor="#666666"
            borderopacity="1.0"
            inkscape:pageopacity="0.0"
            inkscape:pageshadow="2"
            inkscape:zoom="0.35"
            inkscape:cx="25"
            inkscape:cy="520"
            inkscape:document-units="px"
            inkscape:current-layer="g3283"
            showgrid="false"
            inkscape:window-width="1078"
            inkscape:window-height="1899"
            inkscape:window-x="1260"
            inkscape:window-y="1099"
            inkscape:window-maximized="1"/>
    <metadata
            id="metadata3239">
        <rdf:RDF>
            <cc:Work
                    rdf:about="">
                <dc:format>image/svg+xml</dc:format>
                <dc:type
                        rdf:resource="http://purl.org/dc/dcmitype/StillImage"/>
                <dc:title></dc:title>
            </cc:Work>
        </rdf:RDF>
    </metadata>
    <g
            inkscape:label="Layer 1"
            inkscape:groupmode="layer"
            id="layer1">
        <g
                id="g3283"
                transform="translate(417.76153,119.5332)">
            <path
                    inkscape:export-ydpi="4.4499998"
                    inkscape:export-xdpi="4.4499998"
                    inkscape:export-filename="/home/pmcintyr/.IdeaProjects/fragforce.org/ffsite/static/ffsite/icons/fav.ico.png"
                    transform="translate(-1053.0783,794.49177)"
                    d="m 1309.8171,-462.3425 c 0,167.04023 -135.4129,302.4531 -302.4531,302.4531 -167.04022,0 -302.45308,-135.41287 -302.45308,-302.4531 0,-167.04023 135.41286,-302.45309 302.45308,-302.45309 167.0402,0 302.4531,135.41286 302.4531,302.45309 z"
                    sodipodi:ry="302.45309"
                    sodipodi:rx="302.45309"
                    sodipodi:cy="-462.3425"
                    sodipodi:cx="1007.364"
                    id="path3194"
                    style="fill:#ffffff;fill-opacity:1;stroke:#4e738b;stroke-width:42;stroke-miterlimit:4;stroke-opacity:1;stroke-dasharray:none"
                    sodipodi:type="arc"/>
            <path
                    inkscape:export-ydpi="4.4499998"
                    inkscape:export-xdpi="4.4499998"
                    inkscape:export-filename="/home/pmcintyr/.IdeaProjects/fragforce.org/ffsite/static/ffsite/icons/fav.ico.png"
                    id="path4672-6"
                    d="m -60.739689,340.57786 c 0,0 -114.538501,84.7862 -114.538501,84.7862 -20.9746,15.5263 -19.9353,36.8959 2.1393,47.9136 0,0 116.849201,58.321 116.849201,58.321 21.2911,10.6266 55.0561996,7.1533 75.8882,-7.7875 0,0 113.722099,-81.5618 113.722099,-81.5618 21.3692,-15.326 21.7073,-36.6878 0.5721,-47.8982 0,0 -116.032099,-61.5452 -116.032099,-61.5452 -21.9276004,-11.6307 -57.0706,-8.1653 -78.6003,7.7719 0,0 0,0 0,0"
                    style="fill:#4e738b;fill-opacity:1;fill-rule:nonzero;stroke:#ffffff;stroke-width:15.37300014;stroke-linecap:round;stroke-linejoin:round;stroke-miterlimit:4;stroke-opacity:1;stroke-dasharray:none;display:inline"
                    inkscape:connector-curvature="0"/>
            <path
                    inkscape:export-ydpi="4.4499998"
                    inkscape:export-xdpi="4.4499998"
                    inkscape:export-filename="/home/pmcintyr/.IdeaProjects/fragforce.org/ffsite/static/ffsite/icons/fav.ico.png"
                    inkscape:connector-curvature="0"
                    style="fill:#ffffff;fill-opacity:1;fill-rule:nonzero;stroke:none"
                    d="m -39.218289,391.96405 c 14.4193,-10.58111 37.1531996,-13.59847 53.1568,-7.56827 0,0 0.1343,-0.11622 0.1343,-0.11622 0,0 59.1249,24.46568 59.1249,24.46568 0,0 2.5754,1.04624 2.5754,1.04624 0,0 -0.128,0.11044 -0.128,0.11044 9.1714,4.83184 10.9566,12.83615 4.2013,18.70151 -6.7684,5.84745 -19.9672,7.75415 -30.8649,4.45832 0,0 -0.1225,0.10631 -0.1225,0.10631 0,0 -26.8424,-7.93368 -26.8424,-7.93368 -0.413,0.33858 -0.8364,0.6725 -1.2699,1.00151 -5.8328,4.23549 -13.2282004,7.50425 -21.31510039,9.4227 0,0 -21.12679961,15.35842 -21.12679961,15.35842 -1.6823,5.1584 -5.6303,10.12265 -11.3771,14.31222 -0.3758,0.25774 -0.7582,0.51186 -1.1467,0.76224 0,0 17.1233,14.52195 17.1233,14.52195 0,0 -0.1507,0.0916 -0.1507,0.0916 7.1402,5.94249 6.3381,14.09322 -1.8483,19.05244 -8.1939,4.94039 -21.2274,5.17064 -30.4812,0.533 0,0 -0.1562,0.0937 -0.1562,0.0937 0,0 -2.1056,-1.35233 -2.1056,-1.35233 0,0 -48.842201,-30.58735 -48.842201,-30.58735 0,0 0.073,-0.0454 0.073,-0.0454 -12.5813,-8.4848 -11.9293,-22.6331 2.367201,-33.12415 0,0 59.0214,-43.31086 59.0214,-43.31086 0,0 0,0 0,0"
                    id="path4674-7"/>
            <path
                    inkscape:export-ydpi="4.4499998"
                    inkscape:export-xdpi="4.4499998"
                    inkscape:export-filename="/home/pmcintyr/.IdeaProjects/fragforce.org/ffsite/static/ffsite/icons/fav.ico.png"
                    inkscape:connector-curvature="0"
                    style="fill:#4e738b;fill-opacity:1;fill-rule:nonzero;stroke:none"
                    d="m -89.045989,447.14736 c 2.6519,1.3473 6.8753,0.921 9.436,-0.9521 1.2302,-0.8998 1.9049,-2.0203 1.8755,-3.1151 -0.029,-1.0952 -0.7611,-2.0751 -2.0344,-2.7239 -1.2737,-0.649 -2.9848,-0.9134 -4.7567,-0.7348 -1.7719,0.1785 -3.4589,0.7854 -4.6895,1.6869 -1.2303,0.9013 -1.9033,2.0231 -1.8711,3.1183 0.032,1.0948 0.7661,2.0734 2.0402,2.7207 0,0 0,0 0,0"
                    id="path4676-5"/>
            <path
                    inkscape:export-ydpi="4.4499998"
                    inkscape:export-xdpi="4.4499998"
                    inkscape:export-filename="/home/pmcintyr/.IdeaProjects/fragforce.org/ffsite/static/ffsite/icons/fav.ico.png"
                    inkscape:connector-curvature="0"
                    style="fill:#4e738b;fill-opacity:1;fill-rule:nonzero;stroke:none"
                    d="m -65.786489,458.96386 c 2.6357,1.339 6.8444,0.913 9.403,-0.9514 1.2291,-0.8957 1.9059,-2.0106 1.8813,-3.0997 -0.025,-1.0896 -0.7493,-2.064 -2.0149,-2.7089 -1.266,-0.645 -2.9692,-0.9073 -4.7349,-0.7289 -1.7657,0.1784 -3.4487,0.7829 -4.6782,1.6803 -1.2293,0.8972 -1.9044,2.0134 -1.877,3.1029 0.027,1.0891 0.7543,2.0623 2.0207,2.7057 0,0 0,0 0,0"
                    id="path4678-3"/>
            <path
                    inkscape:export-ydpi="4.4499998"
                    inkscape:export-xdpi="4.4499998"
                    inkscape:export-filename="/home/pmcintyr/.IdeaProjects/fragforce.org/ffsite/static/ffsite/icons/fav.ico.png"
                    inkscape:connector-curvature="0"
                    style="fill:#4e738b;fill-opacity:1;fill-rule:nonzero;stroke:none"
                    d="m -66.130889,445.04396 c 2.6427,1.3473 6.8621,0.9214 9.4272,-0.9513 2.5664,-1.8736 2.5075,-4.4875 -0.1342,-5.8384 -1.2693,-0.649 -2.977,-0.9135 -4.7472,-0.7351 -1.7703,0.1784 -3.4575,0.785 -4.6902,1.6864 -1.2324,0.9011 -1.9092,2.0227 -1.8817,3.1178 0.028,1.0947 0.7564,2.0733 2.0261,2.7206 0,0 0,0 0,0"
                    id="path4680-5"/>
            <path
                    inkscape:export-ydpi="4.4499998"
                    inkscape:export-xdpi="4.4499998"
                    inkscape:export-filename="/home/pmcintyr/.IdeaProjects/fragforce.org/ffsite/static/ffsite/icons/fav.ico.png"
                    inkscape:connector-curvature="0"
                    style="fill:#4e738b;fill-opacity:1;fill-rule:nonzero;stroke:none"
                    d="m -87.970489,461.00056 c 1.2703,0.6431 2.9751,0.904 4.7398,0.7254 1.7646,-0.1786 3.4449,-0.782 4.6717,-1.6776 2.5557,-1.8658 2.4865,-4.4666 -0.1574,-5.8091 -1.2702,-0.645 -2.9768,-0.9072 -4.744,-0.7286 -1.7674,0.1786 -3.4501,0.7832 -4.6776,1.6808 -1.2272,0.8973 -1.8987,2.0137 -1.8669,3.1033 0.032,1.0893 0.7637,2.0625 2.0344,2.7058 0,0 0,0 0,0"
                    id="path4682-6"/>
            <path
                    inkscape:export-ydpi="4.4499998"
                    inkscape:export-xdpi="4.4499998"
                    inkscape:export-filename="/home/pmcintyr/.IdeaProjects/fragforce.org/ffsite/static/ffsite/icons/fav.ico.png"
                    inkscape:connector-curvature="0"
                    style="fill:#4e738b;fill-opacity:1;fill-rule:nonzero;stroke:none"
                    d="m -20.003089,395.76176 c 0,0 -6.1751,4.5208 -6.1751,4.5208 -0.5181,0.3794 -0.509,0.9056 0.02,1.18 0,0 22.6469996,11.7373 22.6469996,11.7373 0.5261,0.2727 1.3663,0.1883 1.884,-0.1892 0,0 6.1695,-4.4987 6.1695,-4.4987 0.5183,-0.3779 0.5122,-0.9022 -0.014,-1.1755 0,0 -22.6402996,-11.7639 -22.6402996,-11.7639 -0.5292,-0.275 -1.373,-0.1906 -1.8918,0.1892 0,0 0,0 0,0"
                    id="path4684-2"/>
            <path
                    inkscape:export-ydpi="4.4499998"
                    inkscape:export-xdpi="4.4499998"
                    inkscape:export-filename="/home/pmcintyr/.IdeaProjects/fragforce.org/ffsite/static/ffsite/icons/fav.ico.png"
                    inkscape:connector-curvature="0"
                    style="fill:#4e738b;fill-opacity:1;fill-rule:nonzero;stroke:none"
                    d="m 4.4110106,397.22026 c 0,0 -6.2817,-3.2724 -6.2817,-3.2724 -0.5279,-0.275 -1.3712,-0.1906 -1.8906,0.1891 0,0 -22.2423996,16.2622 -22.2423996,16.2622 -0.5172,0.3782 -0.5081,0.9025 0.02,1.1756 0,0 6.2874,3.2503 6.2874,3.2503 0.5274,0.2726 1.3682,0.1882 1.8852,-0.1893 0,0 22.2356996,-16.2356 22.2356996,-16.2356 0.5192,-0.3792 0.5132,-0.9054 -0.014,-1.1799 0,0 0,0 0,0"
                    id="path4686-9"/>
            <path
                    inkscape:export-ydpi="4.4499998"
                    inkscape:export-xdpi="4.4499998"
                    inkscape:export-filename="/home/pmcintyr/.IdeaProjects/fragforce.org/ffsite/static/ffsite/icons/fav.ico.png"
                    inkscape:connector-curvature="0"
                    id="path4722-2"
                    d="m -225.30209,218.86363 c 0,0 110.1427,-79.70834 110.1427,-79.70834 20.237801,-14.64581 40.608101,-10.1434 45.765401,10.20275 0,0 28.5326,112.56344 28.5326,112.56344 5.434,21.43764 -6.9567,51.26235 -27.8817,66.75401 0,0 -113.923701,84.3426 -113.923701,84.3426 -21.3495,15.80596 -42.4115,10.45453 -47.1272,-11.87363 0,0 -24.7519,-117.19631 -24.7519,-117.19631 -4.4723,-21.17585 8.6104,-50.1525 29.2438,-65.08452 0,0 0,0 0,0"
                    style="fill:#4e738b;fill-opacity:1;fill-rule:nonzero;stroke:#ffffff;stroke-width:16.47299957;stroke-linecap:round;stroke-linejoin:round;stroke-miterlimit:4;stroke-opacity:1;stroke-dasharray:none;display:inline"/>
            <path
                    inkscape:export-ydpi="4.4499998"
                    inkscape:export-xdpi="4.4499998"
                    inkscape:export-filename="/home/pmcintyr/.IdeaProjects/fragforce.org/ffsite/static/ffsite/icons/fav.ico.png"
                    style="fill:#4e738b;fill-opacity:1;fill-rule:nonzero;stroke:#ffffff;stroke-width:16.47299957;stroke-linecap:round;stroke-linejoin:round;stroke-miterlimit:4;stroke-opacity:1;stroke-dasharray:none"
                    d="m -200.61239,302.90773 c 0,0 31.6922,-64.08501 31.6922,-64.08501 0,0 66.0448,23.03082 66.0448,23.03082 0,0 -31.2969,64.82948 -31.2969,64.82948 0,0 -66.4401,-23.77529 -66.4401,-23.77529"
                    id="path4726-0"
                    inkscape:connector-curvature="0"/>
            <path
                    inkscape:export-ydpi="4.4499998"
                    inkscape:export-xdpi="4.4499998"
                    inkscape:export-filename="/home/pmcintyr/.IdeaProjects/fragforce.org/ffsite/static/ffsite/icons/fav.ico.png"
                    style="fill:#4e738b;fill-opacity:1;fill-rule:nonzero;stroke:#ffffff;stroke-width:16.47299957;stroke-linecap:round;stroke-linejoin:round;stroke-miterlimit:4;stroke-opacity:1;stroke-dasharray:none"
                    d="m -188.44089,260.89222 c 0,0 44.8058,-53.74899 44.8058,-53.74899 0,0 44.881501,55.73064 44.881501,55.73064 0,0 -45.054801,54.84459 -45.054801,54.84459 0,0 -44.6325,-56.82624 -44.6325,-56.82624"
                    id="path4728-9"
                    inkscape:connector-curvature="0"/>
            <path
                    inkscape:export-ydpi="4.4499998"
                    inkscape:export-xdpi="4.4499998"
                    inkscape:export-filename="/home/pmcintyr/.IdeaProjects/fragforce.org/ffsite/static/ffsite/icons/fav.ico.png"
                    style="fill:#4e738b;fill-opacity:1;fill-rule:nonzero;stroke:#ffffff;stroke-width:16.47299957;stroke-linecap:round;stroke-linejoin:round;stroke-miterlimit:4;stroke-opacity:1;stroke-dasharray:none"
                    d="m -166.75649,231.06162 c 0,0 50.777,-41.61103 50.777,-41.61103 0,0 25.337701,75.44548 25.337701,75.44548 0,0 -51.434701,42.6024 -51.434701,42.6024 0,0 -24.68,-76.43685 -24.68,-76.43685"
                    id="path4730-3"
                    inkscape:connector-curvature="0"/>
            <path
                    inkscape:export-ydpi="4.4499998"
                    inkscape:export-xdpi="4.4499998"
                    inkscape:export-filename="/home/pmcintyr/.IdeaProjects/fragforce.org/ffsite/static/ffsite/icons/fav.ico.png"
                    inkscape:connector-curvature="0"
                    style="fill:#4e738b;fill-opacity:1;fill-rule:nonzero;stroke:#ffffff;stroke-width:15.37300014;stroke-linecap:round;stroke-linejoin:round;stroke-miterlimit:4;stroke-opacity:1;stroke-dasharray:none;display:inline"
                    d="m 77.676511,194.70895 c 0,0 -105.9881,-61.87997 -105.9881,-61.87997 -20.475,-11.95413 -33.2116,-6.42451 -28.216,12.93131 0,0 29.0323,112.48893 29.0323,112.48893 5.8129,22.5225 28.8620996,50.80333 51.2566,62.74541 0,0 115.412099,61.54443 115.412099,61.54443 20.4792,10.92073 30.4607,1.22046 22.7933,-21.14139 0,0 -38.4656,-112.18426 -38.4656,-112.18426 -6.6476,-19.38745 -26.935199,-43.4761 -45.824599,-54.50446 0,0 0,0 0,0"
                    id="path4734-0"/>
            <path
                    inkscape:export-ydpi="4.4499998"
                    inkscape:export-xdpi="4.4499998"
                    inkscape:export-filename="/home/pmcintyr/.IdeaProjects/fragforce.org/ffsite/static/ffsite/icons/fav.ico.png"
                    style="fill:#ffffff;fill-opacity:1;fill-rule:nonzero;stroke:none;display:inline"
                    d="m 35.667511,197.58127 c 5.4698,3.14516 11.3377,8.23005 16.3346,14.15257 5.0054,5.93267 8.7527,12.25038 10.4185,17.58012 0.4636,1.50548 0.7529,2.90925 0.8622,4.18479 0.8742,0.77821 1.5467,1.38315 2.5499,2.2687 6.4379,5.68249 25.9307,20.24868 36.515999,33.61795 2.9205,3.6886 6.5816,9.00943 6.149,11.21344 -1.2832,6.53878 -24.871899,-7.54785 -23.924399,-5.57165 4.1216,7.70181 33.091099,42.5569 40.443299,59.64388 1.3274,3.2198 3.073,8.73476 0.3146,7.38079 -12.7442,-6.25568 -35.249199,-18.59674 -39.793499,-21.65684 -4.4811,-3.01747 -21.6294,-30.86386 -22.176,-31.75255 0,0 0.1086,0.35845 0.1086,0.35845 -0.016,-0.0255 -0.2389,-0.38313 -0.2393,-0.38377 -0.01,0.0195 -3.8877,17.16793 -8.0857,15.47574 -4.2157,-1.69932 -27.5798,-14.30813 -41.6867,-22.68392 -3.0859,-1.83219 -4.7103004,-7.46074 -5.1963004,-10.3187 -2.1128,-14.70942 14.2784004,-24.99086 14.5104004,-30.37835 -0.1011,-1.53248 -24.3455004,-14.16805 -31.3234004,-25.60737 -2.3602996,-3.86944 -0.9322,-6.45332 0.6324,-7.69018 5.6331,-4.45295 23.4348004,2.03844 28.5686004,2.89305 0.8146,0.1356 1.3568,0.21247 2.0595,0.32202 -0.8537,-1.77764 -1.5247,-3.48228 -1.9992,-5.0782 -1.5623,-5.32993 -0.8373,-9.14367 1.9931,-10.61948 2.8113,-1.46587 7.4747,-0.50691 12.9638,2.64951 0,0 0,0 0,0"
                    id="path4736-6"
                    inkscape:connector-curvature="0"/>
        </g>
    </g>
</svg>
