<?xml version="1.0" encoding="UTF-8" standalone="no"?>
<!-- Created with Inkscape (http://www.inkscape.org/) -->

<svg
   xmlns:dc="http://purl.org/dc/elements/1.1/"
   xmlns:cc="http://creativecommons.org/ns#"
   xmlns:rdf="http://www.w3.org/1999/02/22-rdf-syntax-ns#"
   xmlns:svg="http://www.w3.org/2000/svg"
   xmlns="http://www.w3.org/2000/svg"
   xmlns:sodipodi="http://sodipodi.sourceforge.net/DTD/sodipodi-0.dtd"
   xmlns:inkscape="http://www.inkscape.org/namespaces/inkscape"
   width="64.346275mm"
   height="64.346268mm"
   preserveAspectRatio="xMinYMin meet"
   viewBox="0 0 227.99861 227.99859"
   id="svg5859"
   version="1.1"
   inkscape:version="0.91 r13725"
   sodipodi:docname="fragforce_dpad.svg">
  <sodipodi:namedview
     id="base"
     pagecolor="#000000"
     bordercolor="#666666"
     borderopacity="1.0"
     inkscape:pageopacity="1"
     inkscape:pageshadow="2"
     inkscape:zoom="1"
     inkscape:cx="366.04655"
     inkscape:cy="-161.975"
     inkscape:document-units="px"
     inkscape:current-layer="g7238"
     showgrid="false"
     inkscape:window-width="1920"
     inkscape:window-height="1018"
     inkscape:window-x="-8"
     inkscape:window-y="-8"
     inkscape:window-maximized="1"
     showborder="true"
     fit-margin-top="0"
     fit-margin-left="0"
     fit-margin-right="0"
     fit-margin-bottom="0" />
  <defs
     id="defs5861">
    <inkscape:path-effect
       bendpath4-nodetypes="cc"
       bendpath2-nodetypes="cc"
       bendpath1-nodetypes="cc"
       bendpath3-nodetypes="cc"
       bendpath4="m 318.57144,374.05862 -20,56.875"
       bendpath3="m 298.57144,430.93362 48.125,0"
       bendpath2="m 366.69644,374.05862 -20,56.875"
       bendpath1="m 318.57144,374.05862 48.125,0"
       xx="true"
       yy="true"
       is_visible="true"
       id="path-effect6969"
       effect="envelope" />
  </defs>
  <metadata
     id="metadata5864">
    <rdf:RDF>
      <cc:Work
         rdf:about="">
        <dc:format>image/svg+xml</dc:format>
        <dc:type
           rdf:resource="http://purl.org/dc/dcmitype/StillImage" />
        <dc:title></dc:title>
      </cc:Work>
    </rdf:RDF>
  </metadata>
  <g
     inkscape:label="Box"
     id="layer3"
     inkscape:groupmode="layer"
     transform="translate(-6.000696,-10.363586)">
    <rect
       y="86.862183"
       x="82.5"
       height="75"
       width="75"
       id="rect6974"
       style="opacity:1;fill:#000000;fill-opacity:1;stroke:#000000;stroke-opacity:1" />
  </g>
  <g
     inkscape:label="ArrowTop"
     id="layer4"
     inkscape:groupmode="layer"
     style="display:inline"
     transform="translate(-6.000696,-10.363586)">
    <path
       inkscape:connector-curvature="0"
       id="path7093"
       d="m 98.15039,10.79942 c -8.70564,0 -15.71484,7.00701 -15.71484,15.71289 l 0,59.41406 75.1289,0 0,-59.41406 c 0,-8.70588 -7.00919,-15.71289 -15.71484,-15.71289 l -43.69922,0 z"
       style="opacity:1;fill:#0c2a3f;fill-opacity:0.94117647;stroke:#0c2a3f;stroke-width:0.87166798;stroke-linejoin:round;stroke-opacity:0.94117647" />
    <path
       id="path7183"
       d="m 95,70.51353 50,0 -25,-43.30127 -25,43.30127 z"
       style="fill:#ffffff;fill-opacity:1;stroke:#000000;stroke-width:2;stroke-opacity:0"
       inkscape:label="Triangle"
       inkscape:connector-curvature="0" />
  </g>
  <g
     style="display:inline"
     inkscape:groupmode="layer"
     id="g7232"
     inkscape:label="ArrowRight"
     transform="translate(-6.000696,-10.363586)">
    <path
       style="opacity:1;fill:#0c2a3f;fill-opacity:0.94117647;stroke:#0c2a3f;stroke-width:0.87166798;stroke-linejoin:round;stroke-opacity:0.94117647"
       d="m 233.56347,102.51328 c 0,-8.70564 -7.00701,-15.71483 -15.71289,-15.71483 l -59.41406,0 0,75.12889 59.41406,0 c 8.70588,0 15.71289,-7.00918 15.71289,-15.71483 l 0,-43.69923 z"
       id="path7234"
       inkscape:connector-curvature="0" />
    <path
       inkscape:connector-curvature="0"
       inkscape:label="Triangle"
       style="fill:#ffffff;fill-opacity:1;stroke:#000000;stroke-width:2;stroke-opacity:0"
       d="m 174.34936,99.86289 0,50 43.30127,-25 -43.30127,-25 z"
       id="path7236" />
  </g>
  <g
     inkscape:label="ArrowLeft"
     id="g7238"
     inkscape:groupmode="layer"
     style="display:inline"
     transform="translate(-6.000696,-10.363586)">
    <path
       inkscape:connector-curvature="0"
       id="path7240"
       d="m 6.43653,146.2125 c 0,8.70564 7.007,15.71484 15.71289,15.71484 l 59.41406,0 0,-75.1289 -59.41406,0 c -8.70588,0 -15.71289,7.00919 -15.71289,15.71484 l 0,43.69922 z"
       style="opacity:1;fill:#0c2a3f;fill-opacity:0.94117647;stroke:#0c2a3f;stroke-width:0.87166798;stroke-linejoin:round;stroke-opacity:0.94117647" />
    <path
       id="path7242"
       d="m 65.65064,149.86289 0,-50 -43.30127,25 43.30127,25 z"
       style="fill:#ffffff;fill-opacity:1;stroke:#000000;stroke-width:2;stroke-opacity:0"
       inkscape:label="Triangle"
       inkscape:connector-curvature="0" />
  </g>
  <g
     style="display:inline"
     inkscape:groupmode="layer"
     id="g7226"
     inkscape:label="ArrowBottom"
     transform="translate(-6.000696,-10.363586)">
    <path
       style="opacity:1;fill:#0c2a3f;fill-opacity:0.94117647;stroke:#0c2a3f;stroke-width:0.87166798;stroke-linejoin:round;stroke-opacity:0.94117647"
       d="m 98.15039,237.92633 c -8.70564,0 -15.71484,-7.00701 -15.71484,-15.71289 l 0,-59.41406 75.1289,0 0,59.41406 c 0,8.70588 -7.00919,15.71289 -15.71484,15.71289 l -43.69922,0 z"
       id="path7228"
       inkscape:connector-curvature="0" />
    <path
       inkscape:connector-curvature="0"
       inkscape:label="Triangle"
       style="fill:#ffffff;fill-opacity:1;stroke:#000000;stroke-width:2;stroke-opacity:0"
       d="m 95,178.21222 50,0 -25,43.30127 -25,-43.30127 z"
       id="path7230" />
  </g>
  <g
     id="layer1"
     inkscape:groupmode="layer"
     inkscape:label="Slant F"
     transform="translate(-6.000696,-10.363586)">
    <g
       transform="translate(-212.45691,-277.75988)"
       inkscape:path-effect="#path-effect6969"
       id="text5867"
       style="font-style:normal;font-weight:normal;font-size:40px;line-height:125%;font-family:sans-serif;letter-spacing:0px;word-spacing:0px;fill:#28b7e5;fill-opacity:1;stroke:none;stroke-width:1px;stroke-linecap:butt;stroke-linejoin:miter;stroke-opacity:1">
      <path
         inkscape:connector-curvature="0"
         inkscape:original-d="m 330.44644,426.55862 0,-17.5 21.875,0 0,-13.125 -21.875,0 0,-4.375 21.875,0 0,-13.125 -39.375,0 0,48.125 17.5,0 z m -21.875,4.375 0,-56.875 48.125,0 0,39.375 -21.875,0 0,17.5 -26.25,0 z"
         id="path6967"
         style="font-style:normal;font-variant:normal;font-weight:normal;font-stretch:normal;font-size:70px;font-family:Blocked;-inkscape-font-specification:Blocked;fill:#28b7e5;fill-opacity:1"
         d="m 321.80787,426.18456 c 1.36752,-3.88889 4.78632,-13.61111 6.15384,-17.5 0,0 21.875,0 21.875,0 1.53846,-4.375 3.07693,-8.75 4.61539,-13.125 0,0 -21.875,0 -21.875,0 0,0 1.53846,-4.375 1.53846,-4.375 0,0 21.875,0 21.875,0 -0.35503,1.00962 4.97041,-14.13461 4.61538,-13.125 -13.125,0 -26.25,0 -39.375,0 -4.12758,11.73781 -12.79549,36.3872 -16.92307,48.125 0,0 17.5,0 17.5,0 z m -23.41346,4.375 c 1.7647,-5.01838 18.23529,-51.85662 20,-56.875 16.04166,0 32.08333,0 48.125,0 -1.48352,4.21875 -12.36264,35.15625 -13.84616,39.375 0,0 -21.875,0 -21.875,0 1.23077,-3.5 -7.38461,21 -6.15384,17.5 0,0 -26.25,0 -26.25,0 z" />
    </g>
  </g>
</svg>
