<?xml version="1.0" encoding="utf-8"?>
<!-- Generator: Adobe Illustrator 24.3.0, SVG Export Plug-In . SVG Version: 6.00 Build 0)  -->
<svg version="1.1"
	 id="svg3234" xmlns:cc="http://creativecommons.org/ns#" xmlns:dc="http://purl.org/dc/elements/1.1/"
	 xmlns:inkscape="http://www.inkscape.org/namespaces/inkscape"
	 xmlns:rdf="http://www.w3.org/1999/02/22-rdf-syntax-ns#"
	 xmlns:sodipodi="http://sodipodi.sourceforge.net/DTD/sodipodi-0.dtd" xmlns:svg="http://www.w3.org/2000/svg"
	 xmlns="http://www.w3.org/2000/svg" xmlns:xlink="http://www.w3.org/1999/xlink" x="0px" y="0px"
	 viewBox="0 0 744.1 1052.4"
	 style="enable-background:new 0 0 744.1 1052.4;" xml:space="preserve">
<style type="text/css">
	.st0{fill:#FFFFFF;stroke:#4E738B;stroke-width:42;}
	.st1{fill:#4E738B;stroke:#FFFFFF;stroke-width:15.373;stroke-linecap:round;stroke-linejoin:round;}
	.st2{fill:#FFFFFF;}
	.st3{fill:#4E738B;}
	.st4{fill:#4E738B;stroke:#FFFFFF;stroke-width:16.473;stroke-linecap:round;stroke-linejoin:round;}
</style>
	<sodipodi:namedview bordercolor="#666666" borderopacity="1.0" id="base" inkscape:current-layer="layer1"
						inkscape:cx="25" inkscape:cy="520" inkscape:document-units="px" inkscape:pageopacity="0.0"
						inkscape:pageshadow="2" inkscape:window-height="1147" inkscape:window-maximized="1"
						inkscape:window-width="1920" inkscape:window-x="0" inkscape:window-y="0" inkscape:zoom="0.35"
						pagecolor="#ffffff" showgrid="false">
	</sodipodi:namedview>
	<path id="path3194" inkscape:export-filename="/home/azucaro/Documents/FragForce/selected_logo.png"
		  inkscape:export-xdpi="139.12" inkscape:export-ydpi="139.12" sodipodi:cx="1007.364" sodipodi:cy="-462.3425"
		  sodipodi:rx="302.45309" sodipodi:ry="302.45309" sodipodi:type="arc" class="st0" d="
	M674.5,451.7c0,167-135.4,302.5-302.5,302.5S69.6,618.7,69.6,451.7S205,149.2,372,149.2S674.5,284.6,674.5,451.7z"/>
	<path id="path4672-6" inkscape:connector-curvature="0"
		  inkscape:export-filename="/home/azucaro/Documents/FragForce/selected_logo.png" inkscape:export-xdpi="139.12"
		  inkscape:export-ydpi="139.12" class="st1" d="
	M357,460.1l-114.5,84.8c-21,15.5-19.9,36.9,2.1,47.9l116.8,58.3c21.3,10.6,55.1,7.2,75.9-7.8l113.7-81.6
	c21.4-15.3,21.7-36.7,0.6-47.9l-116-61.5C413.7,440.7,378.6,444.2,357,460.1L357,460.1"/>
	<path id="path4674-7" inkscape:connector-curvature="0"
		  inkscape:export-filename="/home/azucaro/Documents/FragForce/selected_logo.png" inkscape:export-xdpi="139.12"
		  inkscape:export-ydpi="139.12" class="st2" d="
	M378.5,511.5c14.4-10.6,37.2-13.6,53.2-7.6l0.1-0.1l59.1,24.5l2.6,1l-0.1,0.1c9.2,4.8,11,12.8,4.2,18.7c-6.8,5.8-20,7.8-30.9,4.5
	l-0.1,0.1l-26.8-7.9c-0.4,0.3-0.8,0.7-1.3,1c-5.8,4.2-13.2,7.5-21.3,9.4l-21.1,15.4c-1.7,5.2-5.6,10.1-11.4,14.3
	c-0.4,0.3-0.8,0.5-1.1,0.8l17.1,14.5l-0.2,0.1c7.1,5.9,6.3,14.1-1.8,19.1c-8.2,4.9-21.2,5.2-30.5,0.5l-0.2,0.1l-2.1-1.4L317.1,588
	l0.1,0c-12.6-8.5-11.9-22.6,2.4-33.1L378.5,511.5L378.5,511.5"/>
	<path id="path4676-5" inkscape:connector-curvature="0"
		  inkscape:export-filename="/home/azucaro/Documents/FragForce/selected_logo.png" inkscape:export-xdpi="139.12"
		  inkscape:export-ydpi="139.12" class="st3" d="
	M328.7,566.7c2.7,1.3,6.9,0.9,9.4-1c1.2-0.9,1.9-2,1.9-3.1c0-1.1-0.8-2.1-2-2.7c-1.3-0.6-3-0.9-4.8-0.7c-1.8,0.2-3.5,0.8-4.7,1.7
	c-1.2,0.9-1.9,2-1.9,3.1C326.7,565.1,327.4,566,328.7,566.7L328.7,566.7"/>
	<path id="path4678-3" inkscape:connector-curvature="0"
		  inkscape:export-filename="/home/azucaro/Documents/FragForce/selected_logo.png" inkscape:export-xdpi="139.12"
		  inkscape:export-ydpi="139.12" class="st3" d="
	M352,578.5c2.6,1.3,6.8,0.9,9.4-1c1.2-0.9,1.9-2,1.9-3.1c0-1.1-0.7-2.1-2-2.7c-1.3-0.6-3-0.9-4.7-0.7c-1.8,0.2-3.4,0.8-4.7,1.7
	c-1.2,0.9-1.9,2-1.9,3.1C350,576.9,350.7,577.9,352,578.5L352,578.5"/>
	<path id="path4680-5" inkscape:connector-curvature="0"
		  inkscape:export-filename="/home/azucaro/Documents/FragForce/selected_logo.png" inkscape:export-xdpi="139.12"
		  inkscape:export-ydpi="139.12" class="st3" d="
	M351.6,564.6c2.6,1.3,6.9,0.9,9.4-1c2.6-1.9,2.5-4.5-0.1-5.8c-1.3-0.6-3-0.9-4.7-0.7c-1.8,0.2-3.5,0.8-4.7,1.7
	c-1.2,0.9-1.9,2-1.9,3.1C349.6,563,350.4,563.9,351.6,564.6L351.6,564.6"/>
	<path id="path4682-6" inkscape:connector-curvature="0"
		  inkscape:export-filename="/home/azucaro/Documents/FragForce/selected_logo.png" inkscape:export-xdpi="139.12"
		  inkscape:export-ydpi="139.12" class="st3" d="
	M329.8,580.5c1.3,0.6,3,0.9,4.7,0.7c1.8-0.2,3.4-0.8,4.7-1.7c2.6-1.9,2.5-4.5-0.2-5.8c-1.3-0.6-3-0.9-4.7-0.7
	c-1.8,0.2-3.5,0.8-4.7,1.7c-1.2,0.9-1.9,2-1.9,3.1C327.8,578.9,328.5,579.9,329.8,580.5L329.8,580.5"/>
	<path id="path4684-2" inkscape:connector-curvature="0"
		  inkscape:export-filename="/home/azucaro/Documents/FragForce/selected_logo.png" inkscape:export-xdpi="139.12"
		  inkscape:export-ydpi="139.12" class="st3" d="
	M397.8,515.3l-6.2,4.5c-0.5,0.4-0.5,0.9,0,1.2l22.6,11.7c0.5,0.3,1.4,0.2,1.9-0.2l6.2-4.5c0.5-0.4,0.5-0.9,0-1.2l-22.6-11.8
	C399.1,514.8,398.3,514.9,397.8,515.3L397.8,515.3"/>
	<path id="path4686-9" inkscape:connector-curvature="0"
		  inkscape:export-filename="/home/azucaro/Documents/FragForce/selected_logo.png" inkscape:export-xdpi="139.12"
		  inkscape:export-ydpi="139.12" class="st3" d="
	M422.2,516.8l-6.3-3.3c-0.5-0.3-1.4-0.2-1.9,0.2l-22.2,16.3c-0.5,0.4-0.5,0.9,0,1.2l6.3,3.3c0.5,0.3,1.4,0.2,1.9-0.2l22.2-16.2
	C422.7,517.6,422.7,517,422.2,516.8L422.2,516.8"/>
	<path id="path4722-2" inkscape:connector-curvature="0"
		  inkscape:export-filename="/home/azucaro/Documents/FragForce/selected_logo.png" inkscape:export-xdpi="139.12"
		  inkscape:export-ydpi="139.12" class="st4" d="
	M192.5,338.4l110.1-79.7c20.2-14.6,40.6-10.1,45.8,10.2l28.5,112.6c5.4,21.4-7,51.3-27.9,66.8l-113.9,84.3
	c-21.3,15.8-42.4,10.5-47.1-11.9l-24.8-117.2C158.7,382.3,171.8,353.3,192.5,338.4L192.5,338.4"/>
	<path id="path4726-0" inkscape:connector-curvature="0"
		  inkscape:export-filename="/home/azucaro/Documents/FragForce/selected_logo.png" inkscape:export-xdpi="139.12"
		  inkscape:export-ydpi="139.12" class="st4" d="
	M217.1,422.4l31.7-64.1l66,23l-31.3,64.8L217.1,422.4"/>
	<path id="path4728-9" inkscape:connector-curvature="0"
		  inkscape:export-filename="/home/azucaro/Documents/FragForce/selected_logo.png" inkscape:export-xdpi="139.12"
		  inkscape:export-ydpi="139.12" class="st4" d="
	M229.3,380.4l44.8-53.7l44.9,55.7L274,437.3L229.3,380.4"/>
	<path id="path4730-3" inkscape:connector-curvature="0"
		  inkscape:export-filename="/home/azucaro/Documents/FragForce/selected_logo.png" inkscape:export-xdpi="139.12"
		  inkscape:export-ydpi="139.12" class="st4" d="
	M251,350.6l50.8-41.6l25.3,75.4L275.7,427L251,350.6"/>
	<path id="path4734-0" inkscape:connector-curvature="0"
		  inkscape:export-filename="/home/azucaro/Documents/FragForce/selected_logo.png" inkscape:export-xdpi="139.12"
		  inkscape:export-ydpi="139.12" class="st1" d="
	M495.4,314.2l-106-61.9c-20.5-12-33.2-6.4-28.2,12.9l29,112.5c5.8,22.5,28.9,50.8,51.3,62.7l115.4,61.5
	c20.5,10.9,30.5,1.2,22.8-21.1l-38.5-112.2C534.6,349.4,514.3,325.3,495.4,314.2L495.4,314.2"/>
	<path id="path4736-6" inkscape:connector-curvature="0"
		  inkscape:export-filename="/home/azucaro/Documents/FragForce/selected_logo.png" inkscape:export-xdpi="139.12"
		  inkscape:export-ydpi="139.12" class="st2" d="
	M453.4,317.1c5.5,3.1,11.3,8.2,16.3,14.2c5,5.9,8.8,12.3,10.4,17.6c0.5,1.5,0.8,2.9,0.9,4.2c0.9,0.8,1.5,1.4,2.5,2.3
	c6.4,5.7,25.9,20.2,36.5,33.6c2.9,3.7,6.6,9,6.1,11.2c-1.3,6.5-24.9-7.5-23.9-5.6c4.1,7.7,33.1,42.6,40.4,59.6
	c1.3,3.2,3.1,8.7,0.3,7.4c-12.7-6.3-35.2-18.6-39.8-21.7c-4.5-3-21.6-30.9-22.2-31.8l0.1,0.4c0,0-0.2-0.4-0.2-0.4
	c0,0-3.9,17.2-8.1,15.5c-4.2-1.7-27.6-14.3-41.7-22.7c-3.1-1.8-4.7-7.5-5.2-10.3c-2.1-14.7,14.3-25,14.5-30.4
	c-0.1-1.5-24.3-14.2-31.3-25.6c-2.4-3.9-0.9-6.5,0.6-7.7c5.6-4.5,23.4,2,28.6,2.9c0.8,0.1,1.4,0.2,2.1,0.3c-0.9-1.8-1.5-3.5-2-5.1
	c-1.6-5.3-0.8-9.1,2-10.6C443.3,313,447.9,314,453.4,317.1L453.4,317.1"/>
</svg>
